<svg role="img" viewBox="0 0 24 24" xmlns="http://www.w3.org/2000/svg">
  <title>LinkedIn</title>
  <path d="M21.5 0h-19C1.121 0 0 .978 0 2.184v19.632C0 23.021 1.121 24 2.5 24h19c1.379 0 2.5-.979 2.5-2.184V2.184C24 .978 22.879 0 21.5 0zM7.121 19.291h-3.71V8.719h3.71v10.572zM5.768 7.481a2.28 2.28 0 11-.001-4.562 2.28 2.28 0 01.001 4.562zM19.287 19.291h-3.711v-5.507c0-1.31-.478-2.205-1.67-2.205-1.629 0-2.59 1.098-3.02 2.157-.154.383-.192.918-.192 1.456v4.1h-3.71s.049-10.032 0-11.053h3.71v1.565c.494-.754 1.384-1.832 3.366-1.832 2.456 0 4.302 1.6 4.302 5.033v6.287z"/>
</svg>
