<?xml version="1.0" standalone="no"?>
<!DOCTYPE svg PUBLIC "-//W3C//DTD SVG 20010904//EN"
 "http://www.w3.org/TR/2001/REC-SVG-20010904/DTD/svg10.dtd">
<svg version="1.0" xmlns="http://www.w3.org/2000/svg"
 width="820.000000pt" height="921.000000pt" viewBox="0 0 820.000000 921.000000"
 preserveAspectRatio="xMidYMid meet">

<g transform="translate(0.000000,921.000000) scale(0.100000,-0.100000)"
fill="#000000" stroke="none">
<path d="M5490 9200 c-13 -8 -16 -89 -20 -592 -5 -538 -6 -583 -22 -586 -9 -2
-67 25 -127 58 -100 56 -113 61 -140 52 -16 -6 -198 -108 -404 -226 -276 -160
-377 -223 -385 -241 -17 -36 -17 -884 -1 -919 9 -18 74 -61 223 -147 116 -67
280 -162 365 -212 203 -118 212 -121 255 -103 19 8 151 82 293 164 142 82 303
175 358 207 55 31 108 67 117 79 16 20 18 92 18 1093 0 750 -3 1079 -11 1096
-12 27 2 18 -273 171 -114 64 -213 116 -220 116 -6 0 -18 -5 -26 -10z m-155
-1757 l135 -78 -2 -160 -3 -160 -125 -72 c-69 -40 -132 -73 -140 -73 -8 0 -72
33 -142 73 l-128 72 0 160 0 160 133 77 c72 43 133 78 135 78 1 0 63 -35 137
-77z"/>
<path d="M484 7977 c-502 -288 -462 -262 -475 -305 -8 -28 -9 -193 -2 -612 l8
-575 27 -3 c32 -4 457 236 488 275 19 24 20 41 20 309 0 184 4 291 11 307 12
28 231 157 264 157 11 0 70 -29 130 -64 84 -48 114 -71 127 -97 16 -30 18 -67
18 -315 0 -254 2 -284 18 -302 9 -11 120 -79 246 -151 210 -120 231 -130 250
-117 21 13 21 19 24 604 l2 591 -22 25 c-13 13 -178 114 -368 222 -395 227
-408 234 -431 234 -9 0 -160 -82 -335 -183z"/>
<path d="M2735 8006 c-462 -266 -519 -301 -532 -326 -17 -33 -19 -861 -2 -909
8 -23 28 -41 78 -70 36 -21 207 -120 380 -220 173 -101 328 -185 345 -188 25
-3 56 10 166 74 74 44 243 141 375 217 132 75 250 149 263 162 l22 25 0 452
c-1 352 -3 456 -13 469 -14 18 -76 55 -504 301 -176 102 -281 157 -300 157
-18 0 -118 -52 -278 -144z"/>
<path d="M7245 8082 c-66 -38 -212 -122 -325 -187 -113 -66 -227 -131 -255
-146 -68 -38 -93 -63 -100 -101 -3 -18 -5 -225 -3 -460 3 -412 4 -428 23 -447
11 -11 110 -71 220 -134 110 -63 276 -157 369 -211 129 -73 178 -96 205 -96
27 0 92 32 266 129 194 109 230 132 233 153 4 34 57 0 -493 316 -148 85 -273
160 -277 166 -4 6 -8 75 -8 154 0 123 2 144 18 160 27 27 236 142 258 142 23
0 244 -125 262 -148 8 -10 12 -54 12 -132 0 -119 6 -140 41 -140 22 0 445 244
479 277 24 23 25 27 25 159 l0 136 -30 27 c-17 15 -170 107 -340 206 -171 98
-335 194 -365 212 -30 18 -64 33 -75 33 -11 0 -74 -31 -140 -68z"/>
<path d="M7297 7355 l-77 -45 0 -89 0 -89 80 -46 80 -47 80 47 81 46 -3 91 -3
90 -73 44 c-41 24 -77 43 -81 43 -3 0 -41 -20 -84 -45z"/>
<path d="M4000 6133 c-56 -11 -132 -50 -406 -209 -159 -92 -347 -201 -419
-242 -71 -41 -186 -107 -255 -147 -293 -169 -402 -232 -710 -410 -179 -103
-397 -228 -484 -279 -188 -108 -249 -163 -302 -272 -25 -53 -37 -94 -43 -151
-4 -43 -7 -674 -6 -1403 l2 -1325 22 -65 c30 -86 71 -149 136 -207 46 -42 221
-147 619 -371 272 -153 481 -198 722 -157 248 43 415 198 487 454 l22 76 3
1372 c3 1367 2 1373 -18 1393 -19 19 -33 20 -190 20 -157 0 -172 -2 -190 -20
-20 -20 -20 -33 -20 -1333 0 -1468 5 -1375 -71 -1461 -50 -56 -95 -81 -176
-95 -75 -14 -188 6 -273 48 -115 58 -636 363 -652 383 -17 19 -18 97 -18 1337
0 1467 -7 1338 72 1383 78 44 1091 629 1183 683 390 228 1042 599 1059 602 14
3 121 -54 301 -158 154 -89 426 -246 605 -349 179 -103 561 -324 850 -490 289
-166 535 -313 548 -326 l22 -25 0 -1315 c0 -872 -3 -1322 -10 -1334 -6 -11
-43 -38 -83 -61 -39 -23 -128 -74 -197 -114 -69 -40 -255 -148 -415 -240 -159
-92 -409 -236 -555 -320 -146 -84 -400 -230 -565 -325 -165 -95 -338 -195
-384 -223 -49 -29 -95 -50 -111 -49 -17 0 -143 70 -324 177 -162 97 -304 177
-314 178 -10 0 -63 -22 -117 -50 -55 -28 -144 -67 -197 -88 -118 -45 -124 -59
-45 -109 186 -117 796 -471 844 -488 79 -30 224 -30 303 -2 90 32 2354 1341
2415 1397 62 56 106 121 137 203 l23 59 3 1340 c2 923 -1 1362 -8 1410 -15 96
-66 197 -133 265 -56 56 -75 67 -1077 645 -135 78 -488 281 -785 453 -393 227
-556 315 -600 327 -55 14 -169 18 -225 8z"/>
<path d="M4598 4380 c-520 -44 -858 -263 -949 -618 -24 -95 -26 -287 -3 -382
34 -144 120 -273 236 -352 181 -122 417 -186 883 -238 467 -52 672 -99 790
-180 63 -43 84 -92 85 -192 0 -239 -163 -354 -552 -389 -157 -14 -430 -6 -565
16 -118 19 -236 57 -293 93 -105 67 -175 179 -205 327 -24 120 -23 119 -219
123 -180 4 -239 -6 -257 -40 -8 -15 -10 -52 -6 -112 17 -250 124 -458 308
-598 234 -178 553 -258 1026 -258 369 0 623 50 844 167 209 110 344 272 401
482 28 102 31 325 5 421 -48 179 -148 303 -319 390 -81 42 -176 77 -303 110
-127 34 -190 45 -570 100 -313 46 -540 89 -630 120 -127 44 -174 101 -175 211
0 177 105 281 339 332 82 18 130 21 331 21 203 0 248 -3 334 -21 241 -53 365
-164 425 -383 31 -112 27 -110 253 -110 l189 0 25 25 c24 24 25 30 19 88 -45
416 -276 680 -690 787 -209 54 -525 79 -757 60z"/>
</g>
</svg>
