<svg version="1.0" xmlns="http://www.w3.org/2000/svg"
 width="512.000000pt" height="426.000000pt" viewBox="0 0 512.000000 426.000000"
 preserveAspectRatio="xMidYMid meet">

<g transform="translate(0.000000,426.000000) scale(0.100000,-0.100000)"
fill="#000000" stroke="none">
<path d="M64 4231 c-69 -42 -64 89 -64 -1721 0 -1810 -5 -1679 64 -1721 30
-18 102 -19 2496 -19 2394 0 2466 1 2496 19 69 42 64 -89 64 1721 0 1810 5
1679 -64 1721 -30 18 -102 19 -2496 19 -2394 0 -2466 -1 -2496 -19z m4169
-193 c69 -37 58 -135 -17 -154 -28 -7 -81 18 -90 41 -17 46 -2 91 39 113 26
15 41 15 68 0z m280 0 c69 -37 58 -135 -17 -154 -28 -7 -81 18 -90 41 -17 46
-2 91 39 113 26 15 41 15 68 0z m280 0 c57 -30 64 -92 16 -132 -35 -30 -49
-32 -88 -11 -59 30 -57 110 4 143 26 15 41 15 68 0z m-2873 -328 c0 -64 18
-113 45 -124 9 -3 48 -6 86 -6 43 0 69 -4 69 -11 0 -6 12 -40 26 -75 l26 -65
-56 -59 c-77 -81 -76 -92 23 -193 99 -102 118 -104 194 -29 l52 51 59 -29 c32
-17 64 -30 71 -30 9 0 14 -25 16 -86 5 -117 14 -124 154 -124 57 0 111 3 120
6 27 11 45 60 45 124 0 49 3 62 18 67 9 3 43 16 74 28 l57 22 52 -53 c45 -46
59 -54 89 -54 32 0 45 9 113 79 95 98 97 111 26 186 l-52 55 34 75 34 75 73 0
c40 0 82 4 92 10 26 14 40 63 40 146 l0 74 745 0 745 0 0 -1256 0 -1256 -39
-39 -39 -39 -2356 2 -2356 3 -32 33 -33 32 -3 1260 -2 1260 895 0 895 0 0 -60z
m1098 -12 c-8 -123 -76 -221 -187 -271 -64 -29 -178 -29 -242 0 -112 50 -189
165 -189 281 l0 62 311 0 312 0 -5 -72z"/>
<path d="M501 3444 c-13 -9 -30 -32 -38 -51 -18 -43 -4 -93 34 -123 24 -19 40
-20 314 -20 l287 0 31 31 c47 46 41 118 -13 161 -19 16 -51 18 -306 18 -248 0
-289 -2 -309 -16z"/>
<path d="M504 2891 c-36 -22 -58 -75 -49 -114 4 -14 20 -38 36 -53 l30 -29
450 -3 c406 -2 453 -1 485 14 72 34 84 127 23 178 l-31 26 -456 0 c-433 0
-459 -1 -488 -19z"/>
<path d="M3706 2612 c-6 -10 -286 -1098 -286 -1112 0 -7 41 -10 117 -8 l116 3
143 555 c79 305 143 558 144 563 0 10 -227 9 -234 -1z"/>
<path d="M2983 2314 l-273 -155 0 -137 0 -138 269 -152 c148 -83 272 -152 275
-152 3 0 6 69 6 154 l0 154 -152 57 c-84 32 -163 63 -175 69 -19 10 -1 19 152
76 l175 65 0 158 c0 86 -1 157 -2 157 -2 -1 -126 -71 -275 -156z"/>
<path d="M4052 2313 l3 -158 172 -65 c95 -36 169 -67 165 -71 -4 -3 -82 -34
-174 -69 l-168 -63 0 -153 c0 -85 3 -154 8 -154 4 0 129 69 277 153 l270 154
3 131 3 131 -38 25 c-21 13 -144 84 -273 156 -129 73 -238 135 -243 137 -4 3
-6 -67 -5 -154z"/>
<path d="M525 2351 c-83 -34 -83 -162 0 -197 47 -19 1246 -21 1284 -1 80 41
84 160 5 195 -29 14 -1256 16 -1289 3z"/>
<path d="M535 1803 c-30 -7 -73 -52 -80 -83 -3 -16 0 -43 9 -63 29 -71 -19
-67 921 -67 604 0 853 3 868 11 55 28 75 108 41 158 -37 52 -20 51 -911 50
-455 -1 -837 -3 -848 -6z"/>
<path d="M1930 555 c0 -54 -33 -182 -61 -239 -50 -101 -145 -211 -244 -283
l-30 -22 963 -1 964 0 -61 46 c-146 109 -232 250 -259 423 l-16 101 -628 0
-628 0 0 -25z"/>
</g>
</svg>